<svg width="36" height="36" viewBox="0 0 36 36" fill="none" xmlns="http://www.w3.org/2000/svg">
<rect x="0.560547" y="0.97998" width="35" height="35" rx="17.5" fill="#E1E3EB"/>
<path d="M25.021 17.73C25.021 21.4761 21.9858 24.5112 18.2397 24.5112C17.5288 24.5112 16.8452 24.4292 16.2163 24.2104C16.4897 23.7729 16.8999 23.0347 17.064 22.4331C17.146 22.1323 17.4741 20.8198 17.4741 20.8198C17.6929 21.2573 18.3491 21.6128 19.0327 21.6128C21.0835 21.6128 22.5601 19.7261 22.5601 17.4019C22.5601 15.1597 20.728 13.4644 18.3765 13.4644C15.4507 13.4644 13.8921 15.4331 13.8921 17.5659C13.8921 18.5776 14.4116 19.8081 15.2593 20.2183C15.396 20.2729 15.478 20.2456 15.5054 20.1089C15.5054 20.0269 15.6421 19.562 15.6968 19.3433C15.6968 19.2886 15.6968 19.2065 15.6421 19.1519C15.3687 18.8237 15.1499 18.1948 15.1499 17.5933C15.1499 16.1167 16.271 14.6675 18.2124 14.6675C19.853 14.6675 21.0288 15.7886 21.0288 17.4292C21.0288 19.2612 20.0991 20.519 18.896 20.519C18.2397 20.519 17.7476 19.9722 17.8843 19.3159C18.0757 18.4956 18.4585 17.6206 18.4585 17.0464C18.4585 16.5269 18.1851 16.0894 17.6108 16.0894C16.9272 16.0894 16.3804 16.8003 16.3804 17.73C16.3804 18.3315 16.5718 18.7417 16.5718 18.7417C16.5718 18.7417 15.9155 21.5854 15.7788 22.105C15.6421 22.7065 15.6968 23.5269 15.7515 24.0464C13.2358 23.062 11.4585 20.6284 11.4585 17.73C11.4585 13.9839 14.4937 10.9487 18.2397 10.9487C21.9858 10.9487 25.021 13.9839 25.021 17.73Z" fill="black"/>
</svg>