<svg width="36" height="36" viewBox="0 0 36 36" fill="none" xmlns="http://www.w3.org/2000/svg">
<rect x="0.669922" y="0.97998" width="35" height="35" rx="17.5" fill="#E1E3EB"/>
<path d="M25.5047 14.1479C25.8328 15.2964 25.8328 17.7573 25.8328 17.7573C25.8328 17.7573 25.8328 20.1909 25.5047 21.3667C25.3406 22.0229 24.8211 22.5151 24.1922 22.6792C23.0164 22.98 18.368 22.98 18.368 22.98C18.368 22.98 13.6922 22.98 12.5164 22.6792C11.8875 22.5151 11.368 22.0229 11.2039 21.3667C10.8758 20.1909 10.8758 17.7573 10.8758 17.7573C10.8758 17.7573 10.8758 15.2964 11.2039 14.1479C11.368 13.4917 11.8875 12.9722 12.5164 12.8081C13.6922 12.48 18.368 12.48 18.368 12.48C18.368 12.48 23.0164 12.48 24.1922 12.8081C24.8211 12.9722 25.3406 13.4917 25.5047 14.1479ZM16.8367 19.9722L20.7195 17.7573L16.8367 15.5425V19.9722Z" fill="black"/>
</svg>